<mxfile host="app.diagrams.net" agent="Mozilla/5.0 (Macintosh; Intel Mac OS X 10_15_7) AppleWebKit/537.36 (KHTML, like Gecko) Chrome/131.0.0.0 Safari/537.36" version="24.7.8">
  <diagram id="R2lEEEUBdFMjLlhIrx00" name="Page-1">
    <mxGraphModel dx="1454" dy="1222" grid="1" gridSize="10" guides="1" tooltips="1" connect="1" arrows="1" fold="1" page="1" pageScale="1" pageWidth="850" pageHeight="1100" math="0" shadow="0" extFonts="Permanent Marker^https://fonts.googleapis.com/css?family=Permanent+Marker">
      <root>
        <mxCell id="0" />
        <mxCell id="1" parent="0" />
        <mxCell id="Eu5v9dnwe-AQ6O7sdDWo-4" style="edgeStyle=orthogonalEdgeStyle;rounded=0;orthogonalLoop=1;jettySize=auto;html=1;entryX=0.5;entryY=0;entryDx=0;entryDy=0;" edge="1" parent="1" source="Eu5v9dnwe-AQ6O7sdDWo-1" target="Eu5v9dnwe-AQ6O7sdDWo-3">
          <mxGeometry relative="1" as="geometry" />
        </mxCell>
        <mxCell id="Eu5v9dnwe-AQ6O7sdDWo-10" style="edgeStyle=orthogonalEdgeStyle;rounded=0;orthogonalLoop=1;jettySize=auto;html=1;entryX=0.5;entryY=0;entryDx=0;entryDy=0;" edge="1" parent="1" source="Eu5v9dnwe-AQ6O7sdDWo-1" target="Eu5v9dnwe-AQ6O7sdDWo-9">
          <mxGeometry relative="1" as="geometry" />
        </mxCell>
        <mxCell id="Eu5v9dnwe-AQ6O7sdDWo-19" style="edgeStyle=orthogonalEdgeStyle;rounded=0;orthogonalLoop=1;jettySize=auto;html=1;" edge="1" parent="1" source="Eu5v9dnwe-AQ6O7sdDWo-1" target="Eu5v9dnwe-AQ6O7sdDWo-17">
          <mxGeometry relative="1" as="geometry" />
        </mxCell>
        <mxCell id="Eu5v9dnwe-AQ6O7sdDWo-33" style="edgeStyle=orthogonalEdgeStyle;rounded=0;orthogonalLoop=1;jettySize=auto;html=1;exitX=0;exitY=1;exitDx=0;exitDy=0;entryX=0.5;entryY=0;entryDx=0;entryDy=0;" edge="1" parent="1" source="Eu5v9dnwe-AQ6O7sdDWo-1" target="Eu5v9dnwe-AQ6O7sdDWo-31">
          <mxGeometry relative="1" as="geometry">
            <Array as="points">
              <mxPoint x="320" y="560" />
              <mxPoint x="240" y="560" />
            </Array>
          </mxGeometry>
        </mxCell>
        <mxCell id="Eu5v9dnwe-AQ6O7sdDWo-1" value="User" style="rounded=0;whiteSpace=wrap;html=1;" vertex="1" parent="1">
          <mxGeometry x="320" y="480" width="120" height="60" as="geometry" />
        </mxCell>
        <mxCell id="Eu5v9dnwe-AQ6O7sdDWo-2" value="Ticket" style="rounded=0;whiteSpace=wrap;html=1;" vertex="1" parent="1">
          <mxGeometry x="320" y="730" width="120" height="60" as="geometry" />
        </mxCell>
        <mxCell id="Eu5v9dnwe-AQ6O7sdDWo-5" style="edgeStyle=orthogonalEdgeStyle;rounded=0;orthogonalLoop=1;jettySize=auto;html=1;entryX=0.5;entryY=0;entryDx=0;entryDy=0;" edge="1" parent="1" source="Eu5v9dnwe-AQ6O7sdDWo-3" target="Eu5v9dnwe-AQ6O7sdDWo-2">
          <mxGeometry relative="1" as="geometry">
            <mxPoint x="380" y="720" as="targetPoint" />
          </mxGeometry>
        </mxCell>
        <mxCell id="Eu5v9dnwe-AQ6O7sdDWo-3" value="owns" style="rhombus;whiteSpace=wrap;html=1;" vertex="1" parent="1">
          <mxGeometry x="340" y="610" width="80" height="50" as="geometry" />
        </mxCell>
        <mxCell id="Eu5v9dnwe-AQ6O7sdDWo-32" style="edgeStyle=orthogonalEdgeStyle;rounded=0;orthogonalLoop=1;jettySize=auto;html=1;entryX=0;entryY=0.5;entryDx=0;entryDy=0;exitX=0.5;exitY=1;exitDx=0;exitDy=0;" edge="1" parent="1" source="Eu5v9dnwe-AQ6O7sdDWo-6" target="Eu5v9dnwe-AQ6O7sdDWo-26">
          <mxGeometry relative="1" as="geometry" />
        </mxCell>
        <mxCell id="Eu5v9dnwe-AQ6O7sdDWo-6" value="Event" style="rounded=0;whiteSpace=wrap;html=1;" vertex="1" parent="1">
          <mxGeometry x="40" y="730" width="120" height="60" as="geometry" />
        </mxCell>
        <mxCell id="Eu5v9dnwe-AQ6O7sdDWo-12" style="edgeStyle=orthogonalEdgeStyle;rounded=0;orthogonalLoop=1;jettySize=auto;html=1;entryX=0.5;entryY=0;entryDx=0;entryDy=0;" edge="1" parent="1" source="Eu5v9dnwe-AQ6O7sdDWo-9" target="Eu5v9dnwe-AQ6O7sdDWo-6">
          <mxGeometry relative="1" as="geometry" />
        </mxCell>
        <mxCell id="Eu5v9dnwe-AQ6O7sdDWo-9" value="creates" style="rhombus;whiteSpace=wrap;html=1;" vertex="1" parent="1">
          <mxGeometry x="60" y="610" width="80" height="50" as="geometry" />
        </mxCell>
        <mxCell id="Eu5v9dnwe-AQ6O7sdDWo-22" value="" style="edgeStyle=orthogonalEdgeStyle;rounded=0;orthogonalLoop=1;jettySize=auto;html=1;" edge="1" parent="1" source="Eu5v9dnwe-AQ6O7sdDWo-17" target="Eu5v9dnwe-AQ6O7sdDWo-21">
          <mxGeometry relative="1" as="geometry" />
        </mxCell>
        <mxCell id="Eu5v9dnwe-AQ6O7sdDWo-17" value="adds" style="rhombus;whiteSpace=wrap;html=1;" vertex="1" parent="1">
          <mxGeometry x="590" y="485" width="80" height="50" as="geometry" />
        </mxCell>
        <mxCell id="Eu5v9dnwe-AQ6O7sdDWo-24" style="edgeStyle=orthogonalEdgeStyle;rounded=0;orthogonalLoop=1;jettySize=auto;html=1;entryX=0.5;entryY=0;entryDx=0;entryDy=0;" edge="1" parent="1" source="Eu5v9dnwe-AQ6O7sdDWo-21" target="Eu5v9dnwe-AQ6O7sdDWo-23">
          <mxGeometry relative="1" as="geometry" />
        </mxCell>
        <mxCell id="Eu5v9dnwe-AQ6O7sdDWo-21" value="Listing" style="whiteSpace=wrap;html=1;" vertex="1" parent="1">
          <mxGeometry x="570" y="610" width="120" height="60" as="geometry" />
        </mxCell>
        <mxCell id="Eu5v9dnwe-AQ6O7sdDWo-25" style="edgeStyle=orthogonalEdgeStyle;rounded=0;orthogonalLoop=1;jettySize=auto;html=1;entryX=1;entryY=0.5;entryDx=0;entryDy=0;" edge="1" parent="1" source="Eu5v9dnwe-AQ6O7sdDWo-23" target="Eu5v9dnwe-AQ6O7sdDWo-2">
          <mxGeometry relative="1" as="geometry" />
        </mxCell>
        <mxCell id="Eu5v9dnwe-AQ6O7sdDWo-23" value="for" style="rhombus;whiteSpace=wrap;html=1;" vertex="1" parent="1">
          <mxGeometry x="590" y="735" width="80" height="50" as="geometry" />
        </mxCell>
        <mxCell id="Eu5v9dnwe-AQ6O7sdDWo-28" style="edgeStyle=orthogonalEdgeStyle;rounded=0;orthogonalLoop=1;jettySize=auto;html=1;" edge="1" parent="1" source="Eu5v9dnwe-AQ6O7sdDWo-26" target="Eu5v9dnwe-AQ6O7sdDWo-2">
          <mxGeometry relative="1" as="geometry" />
        </mxCell>
        <mxCell id="Eu5v9dnwe-AQ6O7sdDWo-26" value="has" style="rhombus;whiteSpace=wrap;html=1;" vertex="1" parent="1">
          <mxGeometry x="200" y="850" width="80" height="50" as="geometry" />
        </mxCell>
        <mxCell id="Eu5v9dnwe-AQ6O7sdDWo-34" style="edgeStyle=orthogonalEdgeStyle;rounded=0;orthogonalLoop=1;jettySize=auto;html=1;entryX=0;entryY=0.5;entryDx=0;entryDy=0;exitX=0.5;exitY=1;exitDx=0;exitDy=0;" edge="1" parent="1" source="Eu5v9dnwe-AQ6O7sdDWo-31" target="Eu5v9dnwe-AQ6O7sdDWo-2">
          <mxGeometry relative="1" as="geometry" />
        </mxCell>
        <mxCell id="Eu5v9dnwe-AQ6O7sdDWo-31" value="trades" style="rhombus;whiteSpace=wrap;html=1;" vertex="1" parent="1">
          <mxGeometry x="200" y="610" width="80" height="50" as="geometry" />
        </mxCell>
        <mxCell id="Eu5v9dnwe-AQ6O7sdDWo-37" style="edgeStyle=orthogonalEdgeStyle;rounded=0;orthogonalLoop=1;jettySize=auto;html=1;entryX=1;entryY=0.5;entryDx=0;entryDy=0;" edge="1" parent="1" source="Eu5v9dnwe-AQ6O7sdDWo-35" target="Eu5v9dnwe-AQ6O7sdDWo-36">
          <mxGeometry relative="1" as="geometry" />
        </mxCell>
        <mxCell id="Eu5v9dnwe-AQ6O7sdDWo-35" value="Transaction" style="rounded=0;whiteSpace=wrap;html=1;" vertex="1" parent="1">
          <mxGeometry x="570" y="825" width="120" height="60" as="geometry" />
        </mxCell>
        <mxCell id="Eu5v9dnwe-AQ6O7sdDWo-38" style="edgeStyle=orthogonalEdgeStyle;rounded=0;orthogonalLoop=1;jettySize=auto;html=1;entryX=1;entryY=1;entryDx=0;entryDy=0;" edge="1" parent="1" source="Eu5v9dnwe-AQ6O7sdDWo-36" target="Eu5v9dnwe-AQ6O7sdDWo-2">
          <mxGeometry relative="1" as="geometry">
            <mxPoint x="380" y="790" as="targetPoint" />
          </mxGeometry>
        </mxCell>
        <mxCell id="Eu5v9dnwe-AQ6O7sdDWo-36" value="records" style="rhombus;whiteSpace=wrap;html=1;" vertex="1" parent="1">
          <mxGeometry x="440" y="830" width="80" height="50" as="geometry" />
        </mxCell>
      </root>
    </mxGraphModel>
  </diagram>
</mxfile>
